G75*
%MOIN*%
%OFA0B0*%
%FSLAX24Y24*%
%IPPOS*%
%LPD*%
%AMOC8*
5,1,8,0,0,1.08239X$1,22.5*
%
%ADD10C,0.0591*%
%ADD11OC8,0.0780*%
%ADD12C,0.0780*%
%ADD13R,0.1640X0.0640*%
%ADD14C,0.0276*%
%ADD15R,0.0434X0.0197*%
%ADD16C,0.0148*%
%ADD17R,0.0394X0.0316*%
%ADD18R,0.0910X0.0280*%
%ADD19R,0.0290X0.0540*%
%ADD20R,0.0512X0.1615*%
%ADD21R,0.0316X0.0394*%
%ADD22C,0.0640*%
D10*
X001010Y001020D03*
X001010Y002370D03*
X001010Y003200D03*
X001010Y007570D03*
X001010Y008420D03*
X001010Y009920D03*
D11*
X013560Y001920D03*
X014560Y001920D03*
X015560Y001920D03*
X015560Y000920D03*
X014560Y000920D03*
X013560Y000920D03*
D12*
X017465Y000880D03*
X018465Y000880D03*
X006980Y006960D03*
X006980Y007960D03*
X006980Y008960D03*
X004060Y001110D03*
X003060Y001110D03*
X002060Y001110D03*
D13*
X001170Y004210D03*
X001170Y006210D03*
D14*
X014490Y005025D03*
D15*
X011775Y003659D03*
D16*
X011918Y003891D02*
X011632Y003891D01*
X011632Y003939D01*
X011918Y003939D01*
X011918Y003891D01*
X011918Y004147D02*
X011632Y004147D01*
X011632Y004195D01*
X011918Y004195D01*
X011918Y004147D01*
X012222Y004195D02*
X012508Y004195D01*
X012508Y004147D01*
X012222Y004147D01*
X012222Y004195D01*
X012222Y003939D02*
X012508Y003939D01*
X012508Y003891D01*
X012222Y003891D01*
X012222Y003939D01*
X012222Y003683D02*
X012508Y003683D01*
X012508Y003635D01*
X012222Y003635D01*
X012222Y003683D01*
D17*
X011245Y003746D03*
X011245Y003234D03*
X019015Y008404D03*
X019015Y008916D03*
D18*
X007110Y005975D03*
X007110Y005475D03*
X007110Y004975D03*
X007110Y004475D03*
X005050Y004475D03*
X005050Y004975D03*
X005050Y005475D03*
X005050Y005975D03*
D19*
X004307Y005900D03*
X003953Y005900D03*
X003943Y005115D03*
X004297Y005115D03*
X004317Y004345D03*
X003963Y004345D03*
D20*
X014120Y007975D03*
X018530Y007975D03*
D21*
X006421Y003795D03*
X005909Y003795D03*
X005541Y003390D03*
X005029Y003390D03*
D22*
X016260Y010620D02*
X016260Y011220D01*
X017260Y011220D02*
X017260Y010620D01*
X018260Y010620D02*
X018260Y011220D01*
X019260Y011220D02*
X019260Y010620D01*
M02*
