G75*
%MOIN*%
%OFA0B0*%
%FSLAX24Y24*%
%IPPOS*%
%LPD*%
%AMOC8*
5,1,8,0,0,1.08239X$1,22.5*
%
%ADD10R,0.0354X0.0276*%
%ADD11R,0.0276X0.0354*%
%ADD12R,0.0500X0.0220*%
%ADD13R,0.0220X0.0500*%
%ADD14R,0.0709X0.0315*%
%ADD15R,0.0709X0.0276*%
%ADD16R,0.0394X0.0787*%
%ADD17R,0.0394X0.0433*%
%ADD18R,0.0315X0.0315*%
%ADD19R,0.0413X0.0866*%
%ADD20R,0.0394X0.0413*%
%ADD21C,0.0091*%
%ADD22R,0.0098X0.0226*%
%ADD23R,0.0256X0.0404*%
%ADD24R,0.0270X0.0091*%
%ADD25R,0.1500X0.0760*%
%ADD26R,0.0709X0.0630*%
%ADD27R,0.0630X0.0709*%
%ADD28R,0.0226X0.0098*%
%ADD29R,0.0404X0.0256*%
%ADD30R,0.0091X0.0270*%
%ADD31R,0.0760X0.1500*%
%ADD32R,0.0700X0.0700*%
%ADD33R,0.0450X0.0450*%
%ADD34R,0.0700X0.0280*%
%ADD35R,0.0560X0.0350*%
%ADD36R,0.0787X0.0512*%
%ADD37R,0.0276X0.0098*%
%ADD38R,0.0098X0.0276*%
%ADD39R,0.1024X0.1024*%
%ADD40R,0.0433X0.0394*%
%ADD41R,0.0197X0.0315*%
%ADD42R,0.0197X0.0236*%
%ADD43R,0.0236X0.0197*%
D10*
X002845Y002179D03*
X002845Y002691D03*
X003925Y004104D03*
X003925Y004616D03*
X005735Y003371D03*
X005735Y002859D03*
X007075Y004329D03*
X007575Y004324D03*
X007575Y004836D03*
X007075Y004841D03*
X006445Y005031D03*
X006445Y004519D03*
X009005Y004171D03*
X009005Y003659D03*
X009725Y004849D03*
X009725Y005361D03*
X012760Y006969D03*
X012760Y007481D03*
X013030Y006291D03*
X013030Y005779D03*
X015755Y003671D03*
X015755Y003159D03*
X012650Y001341D03*
X011910Y001526D03*
X011310Y001526D03*
X010775Y001546D03*
X010775Y001034D03*
X011310Y001014D03*
X011910Y001014D03*
X012650Y000829D03*
X009675Y000759D03*
X009675Y001271D03*
X009255Y001519D03*
X008800Y001516D03*
X008330Y001381D03*
X008800Y001004D03*
X008330Y000869D03*
X009255Y002031D03*
X003405Y006919D03*
X003405Y007431D03*
X003245Y008544D03*
X003245Y009056D03*
X009060Y009214D03*
X009510Y009214D03*
X009510Y009726D03*
X009060Y009726D03*
X009160Y007676D03*
X009160Y007164D03*
D11*
X011054Y006070D03*
X011566Y006070D03*
X013654Y006220D03*
X014166Y006220D03*
X014211Y005525D03*
X013699Y005525D03*
X015134Y005800D03*
X015646Y005800D03*
X018994Y006780D03*
X019506Y006780D03*
X019511Y007285D03*
X018999Y007285D03*
X019004Y007800D03*
X019516Y007800D03*
X019516Y008470D03*
X019004Y008470D03*
X019009Y008985D03*
X019521Y008985D03*
X014466Y009830D03*
X013954Y009830D03*
X014161Y009350D03*
X013649Y009350D03*
X005871Y005185D03*
X005359Y005185D03*
X004201Y005215D03*
X003689Y005215D03*
X002986Y005215D03*
X002474Y005215D03*
X005104Y003925D03*
X005616Y003925D03*
X003981Y002700D03*
X003469Y002700D03*
X003469Y002160D03*
X003981Y002160D03*
X005954Y001330D03*
X006466Y001330D03*
X006466Y000890D03*
X005954Y000890D03*
X007279Y000890D03*
X007791Y000890D03*
X007791Y001330D03*
X007761Y001795D03*
X007249Y001795D03*
X007279Y001330D03*
X009449Y003825D03*
X009961Y003825D03*
X009961Y004315D03*
X009449Y004315D03*
X013894Y002720D03*
X014406Y002720D03*
X003951Y007970D03*
X003439Y007970D03*
D12*
X015020Y007963D03*
X015020Y008277D03*
X015020Y008592D03*
X015020Y008907D03*
X015020Y009222D03*
X015020Y007648D03*
X015020Y007333D03*
X015020Y007018D03*
X018400Y007018D03*
X018400Y007333D03*
X018400Y007648D03*
X018400Y007963D03*
X018400Y008277D03*
X018400Y008592D03*
X018400Y008907D03*
X018400Y009222D03*
D13*
X017812Y009810D03*
X017497Y009810D03*
X017182Y009810D03*
X016867Y009810D03*
X016553Y009810D03*
X016238Y009810D03*
X015923Y009810D03*
X015608Y009810D03*
X015608Y006430D03*
X015923Y006430D03*
X016238Y006430D03*
X016553Y006430D03*
X016867Y006430D03*
X017182Y006430D03*
X017497Y006430D03*
X017812Y006430D03*
D14*
X008409Y006701D03*
X008409Y007134D03*
X008409Y007567D03*
X008409Y008000D03*
X008409Y008433D03*
X008409Y008866D03*
X008409Y009300D03*
X004669Y009300D03*
X004669Y008866D03*
X004669Y008433D03*
X004669Y008000D03*
X004669Y007567D03*
X004669Y007134D03*
X004669Y006701D03*
D15*
X004669Y006288D03*
X008409Y006288D03*
X008409Y009713D03*
X004669Y009713D03*
D16*
X003260Y009320D03*
X000465Y009320D03*
D17*
X003860Y009105D03*
X003860Y008435D03*
X003310Y004690D03*
X003310Y004020D03*
X006365Y003895D03*
X006365Y003225D03*
X006455Y002710D03*
X006455Y002040D03*
D18*
X007075Y005195D03*
X007575Y005200D03*
X007575Y005790D03*
X007075Y005785D03*
X009265Y006080D03*
X009265Y006670D03*
X018715Y006270D03*
X019305Y006270D03*
D19*
X002891Y007490D03*
X001729Y007490D03*
D20*
X002310Y008091D03*
D21*
X010966Y008611D03*
X011163Y008611D03*
X011360Y008611D03*
X011557Y008611D03*
X011754Y008611D03*
X011754Y009529D03*
X011557Y009529D03*
X011360Y009529D03*
X011163Y009529D03*
X010966Y009529D03*
X018301Y003564D03*
X018301Y003367D03*
X018301Y003170D03*
X018301Y002973D03*
X018301Y002776D03*
X019219Y002776D03*
X019219Y002973D03*
X019219Y003170D03*
X019219Y003367D03*
X019219Y003564D03*
D22*
X018868Y003805D03*
X018652Y003805D03*
X018652Y002535D03*
X018868Y002535D03*
D23*
X018947Y002909D03*
X018573Y002909D03*
X018573Y003431D03*
X018947Y003431D03*
D24*
X019354Y003367D03*
X019354Y003564D03*
X019354Y003170D03*
X019354Y002973D03*
X019354Y002776D03*
X018166Y002776D03*
X018166Y002973D03*
X018166Y003170D03*
X018166Y003367D03*
X018166Y003564D03*
D25*
X017060Y002970D03*
X017060Y001970D03*
D26*
X019410Y001971D03*
X019410Y000869D03*
X010225Y006534D03*
X010225Y007636D03*
X010160Y008519D03*
X010160Y009621D03*
X012560Y009621D03*
X012560Y008519D03*
X005045Y002176D03*
X005045Y001074D03*
D27*
X017809Y005370D03*
X018911Y005370D03*
X018961Y004470D03*
X017859Y004470D03*
D28*
X011995Y008962D03*
X011995Y009178D03*
X010725Y009178D03*
X010725Y008962D03*
D29*
X011099Y008883D03*
X011099Y009257D03*
X011621Y009257D03*
X011621Y008883D03*
D30*
X011557Y008476D03*
X011754Y008476D03*
X011360Y008476D03*
X011163Y008476D03*
X010966Y008476D03*
X010966Y009664D03*
X011163Y009664D03*
X011360Y009664D03*
X011557Y009664D03*
X011754Y009664D03*
D31*
X012110Y007120D03*
X011110Y007120D03*
D32*
X010733Y004670D03*
X012387Y004670D03*
X012387Y002670D03*
X010733Y002670D03*
D33*
X010583Y003670D03*
X012537Y003670D03*
D34*
X012010Y003670D03*
X011110Y003670D03*
D35*
X011160Y003170D03*
X011960Y003170D03*
X011960Y004170D03*
X011160Y004170D03*
D36*
X013881Y006931D03*
X013881Y008427D03*
D37*
X008557Y003449D03*
X008557Y003252D03*
X008557Y003055D03*
X008557Y002858D03*
X008557Y002661D03*
X006983Y002661D03*
X006983Y002858D03*
X006983Y003055D03*
X006983Y003252D03*
X006983Y003449D03*
D38*
X007376Y003842D03*
X007573Y003842D03*
X007770Y003842D03*
X007967Y003842D03*
X008164Y003842D03*
X008164Y002268D03*
X007967Y002268D03*
X007770Y002268D03*
X007573Y002268D03*
X007376Y002268D03*
D39*
X007770Y003055D03*
D40*
X005960Y004565D03*
X005290Y004565D03*
X005190Y003315D03*
X004520Y003315D03*
X003985Y003310D03*
X003315Y003310D03*
D41*
X008269Y004884D03*
X008623Y004884D03*
X008977Y004884D03*
X009331Y004884D03*
X009331Y005356D03*
X008977Y005356D03*
X008623Y005356D03*
X008269Y005356D03*
D42*
X013674Y004751D03*
X013674Y004160D03*
X013674Y003569D03*
X014816Y003569D03*
X014816Y004160D03*
X014816Y004751D03*
D43*
X014245Y004770D03*
M02*
