G75*
%MOIN*%
%OFA0B0*%
%FSLAX24Y24*%
%IPPOS*%
%LPD*%
%AMOC8*
5,1,8,0,0,1.08239X$1,22.5*
%
%ADD10C,0.0591*%
%ADD11R,0.0394X0.0316*%
%ADD12R,0.0316X0.0394*%
%ADD13R,0.0540X0.0260*%
%ADD14R,0.0260X0.0540*%
%ADD15R,0.0749X0.0355*%
%ADD16R,0.0749X0.0316*%
%ADD17R,0.0434X0.0827*%
%ADD18OC8,0.0780*%
%ADD19R,0.0434X0.0473*%
%ADD20R,0.0355X0.0355*%
%ADD21R,0.0453X0.0906*%
%ADD22R,0.0434X0.0453*%
%ADD23C,0.0780*%
%ADD24C,0.0138*%
%ADD25R,0.0118X0.0236*%
%ADD26R,0.0669X0.0965*%
%ADD27R,0.0299X0.0138*%
%ADD28R,0.1540X0.0800*%
%ADD29R,0.0749X0.0670*%
%ADD30R,0.0670X0.0749*%
%ADD31R,0.0236X0.0118*%
%ADD32R,0.0965X0.0669*%
%ADD33R,0.0138X0.0299*%
%ADD34R,0.0800X0.1540*%
%ADD35R,0.0740X0.0740*%
%ADD36R,0.0490X0.0490*%
%ADD37R,0.0740X0.0320*%
%ADD38R,0.0600X0.0390*%
%ADD39R,0.0827X0.0552*%
%ADD40R,0.0316X0.0138*%
%ADD41R,0.0138X0.0316*%
%ADD42R,0.1064X0.1064*%
%ADD43R,0.0473X0.0434*%
%ADD44R,0.1640X0.0640*%
%ADD45R,0.0237X0.0355*%
%ADD46C,0.0276*%
%ADD47R,0.0237X0.0276*%
%ADD48R,0.0276X0.0237*%
%ADD49C,0.0640*%
D10*
X001010Y001020D03*
X001010Y002370D03*
X001010Y003200D03*
X001010Y007570D03*
X001010Y008420D03*
X001010Y009920D03*
D11*
X003245Y009056D03*
X003245Y008544D03*
X003405Y007431D03*
X003405Y006919D03*
X006445Y005031D03*
X007075Y004841D03*
X007575Y004836D03*
X007575Y004324D03*
X007075Y004329D03*
X006445Y004519D03*
X005735Y003371D03*
X005735Y002859D03*
X003925Y004104D03*
X003925Y004616D03*
X002845Y002691D03*
X002845Y002179D03*
X008330Y001381D03*
X008800Y001516D03*
X009255Y001519D03*
X009675Y001271D03*
X009675Y000759D03*
X008800Y001004D03*
X008330Y000869D03*
X009255Y002031D03*
X010775Y001546D03*
X011310Y001526D03*
X011910Y001526D03*
X011910Y001014D03*
X011310Y001014D03*
X010775Y001034D03*
X012650Y000829D03*
X012650Y001341D03*
X015755Y003159D03*
X015755Y003671D03*
X013030Y005779D03*
X013030Y006291D03*
X012760Y006969D03*
X012760Y007481D03*
X009510Y009214D03*
X009060Y009214D03*
X009060Y009726D03*
X009510Y009726D03*
X009160Y007676D03*
X009160Y007164D03*
X009725Y005361D03*
X009725Y004849D03*
X009005Y004171D03*
X009005Y003659D03*
D12*
X009449Y003825D03*
X009961Y003825D03*
X009961Y004315D03*
X009449Y004315D03*
X011054Y006070D03*
X011566Y006070D03*
X013654Y006220D03*
X014166Y006220D03*
X014211Y005525D03*
X013699Y005525D03*
X015134Y005800D03*
X015646Y005800D03*
X018994Y006780D03*
X019506Y006780D03*
X019511Y007285D03*
X018999Y007285D03*
X019004Y007800D03*
X019516Y007800D03*
X019516Y008470D03*
X019004Y008470D03*
X019009Y008985D03*
X019521Y008985D03*
X014466Y009830D03*
X013954Y009830D03*
X014161Y009350D03*
X013649Y009350D03*
X005871Y005185D03*
X005359Y005185D03*
X004201Y005215D03*
X003689Y005215D03*
X002986Y005215D03*
X002474Y005215D03*
X005104Y003925D03*
X005616Y003925D03*
X003981Y002700D03*
X003469Y002700D03*
X003469Y002160D03*
X003981Y002160D03*
X005954Y001330D03*
X006466Y001330D03*
X006466Y000890D03*
X005954Y000890D03*
X007279Y000890D03*
X007791Y000890D03*
X007791Y001330D03*
X007761Y001795D03*
X007249Y001795D03*
X007279Y001330D03*
X013894Y002720D03*
X014406Y002720D03*
X003951Y007970D03*
X003439Y007970D03*
D13*
X015020Y007963D03*
X015020Y008277D03*
X015020Y008592D03*
X015020Y008907D03*
X015020Y009222D03*
X015020Y007648D03*
X015020Y007333D03*
X015020Y007018D03*
X018400Y007018D03*
X018400Y007333D03*
X018400Y007648D03*
X018400Y007963D03*
X018400Y008277D03*
X018400Y008592D03*
X018400Y008907D03*
X018400Y009222D03*
D14*
X017812Y009810D03*
X017497Y009810D03*
X017182Y009810D03*
X016867Y009810D03*
X016553Y009810D03*
X016238Y009810D03*
X015923Y009810D03*
X015608Y009810D03*
X015608Y006430D03*
X015923Y006430D03*
X016238Y006430D03*
X016553Y006430D03*
X016867Y006430D03*
X017182Y006430D03*
X017497Y006430D03*
X017812Y006430D03*
D15*
X008409Y006701D03*
X008409Y007134D03*
X008409Y007567D03*
X008409Y008000D03*
X008409Y008433D03*
X008409Y008866D03*
X008409Y009300D03*
X004669Y009300D03*
X004669Y008866D03*
X004669Y008433D03*
X004669Y008000D03*
X004669Y007567D03*
X004669Y007134D03*
X004669Y006701D03*
D16*
X004669Y006288D03*
X008409Y006288D03*
X008409Y009713D03*
X004669Y009713D03*
D17*
X003260Y009320D03*
X000465Y009320D03*
D18*
X013560Y001920D03*
X014560Y001920D03*
X015560Y001920D03*
X015560Y000920D03*
X014560Y000920D03*
X013560Y000920D03*
D19*
X006455Y002040D03*
X006455Y002710D03*
X006365Y003225D03*
X006365Y003895D03*
X003310Y004020D03*
X003310Y004690D03*
X003860Y008435D03*
X003860Y009105D03*
D20*
X009265Y006670D03*
X009265Y006080D03*
X007575Y005790D03*
X007075Y005785D03*
X007075Y005195D03*
X007575Y005200D03*
X018715Y006270D03*
X019305Y006270D03*
D21*
X002891Y007490D03*
X001729Y007490D03*
D22*
X002310Y008091D03*
D23*
X006980Y007960D03*
X006980Y006960D03*
X006980Y008960D03*
X004060Y001110D03*
X003060Y001110D03*
X002060Y001110D03*
X017465Y000880D03*
X018465Y000880D03*
D24*
X018301Y002776D03*
X018301Y002973D03*
X018301Y003170D03*
X018301Y003367D03*
X018301Y003564D03*
X019219Y003564D03*
X019219Y003367D03*
X019219Y003170D03*
X019219Y002973D03*
X019219Y002776D03*
X011754Y008611D03*
X011557Y008611D03*
X011360Y008611D03*
X011163Y008611D03*
X010966Y008611D03*
X010966Y009529D03*
X011163Y009529D03*
X011360Y009529D03*
X011557Y009529D03*
X011754Y009529D03*
D25*
X018652Y003810D03*
X018868Y003810D03*
X018868Y002530D03*
X018652Y002530D03*
D26*
X018760Y003170D03*
D27*
X018152Y003170D03*
X018152Y002973D03*
X018152Y002776D03*
X018152Y003367D03*
X018152Y003564D03*
X019368Y003564D03*
X019368Y003367D03*
X019368Y003170D03*
X019368Y002973D03*
X019368Y002776D03*
D28*
X017060Y002970D03*
X017060Y001970D03*
D29*
X019410Y001971D03*
X019410Y000869D03*
X010225Y006534D03*
X010225Y007636D03*
X010160Y008519D03*
X010160Y009621D03*
X012560Y009621D03*
X012560Y008519D03*
X005045Y002176D03*
X005045Y001074D03*
D30*
X017809Y005370D03*
X018911Y005370D03*
X018961Y004470D03*
X017859Y004470D03*
D31*
X012000Y008962D03*
X012000Y009178D03*
X010720Y009178D03*
X010720Y008962D03*
D32*
X011360Y009070D03*
D33*
X011360Y008462D03*
X011163Y008462D03*
X010966Y008462D03*
X011557Y008462D03*
X011754Y008462D03*
X011754Y009678D03*
X011557Y009678D03*
X011360Y009678D03*
X011163Y009678D03*
X010966Y009678D03*
D34*
X011110Y007120D03*
X012110Y007120D03*
D35*
X012387Y004670D03*
X010733Y004670D03*
X010733Y002670D03*
X012387Y002670D03*
D36*
X012537Y003670D03*
X010583Y003670D03*
D37*
X011110Y003670D03*
X012010Y003670D03*
D38*
X011960Y003170D03*
X011160Y003170D03*
X011160Y004170D03*
X011960Y004170D03*
D39*
X013881Y006931D03*
X013881Y008427D03*
D40*
X008557Y003449D03*
X008557Y003252D03*
X008557Y003055D03*
X008557Y002858D03*
X008557Y002661D03*
X006983Y002661D03*
X006983Y002858D03*
X006983Y003055D03*
X006983Y003252D03*
X006983Y003449D03*
D41*
X007376Y003842D03*
X007573Y003842D03*
X007770Y003842D03*
X007967Y003842D03*
X008164Y003842D03*
X008164Y002268D03*
X007967Y002268D03*
X007770Y002268D03*
X007573Y002268D03*
X007376Y002268D03*
D42*
X007770Y003055D03*
D43*
X005960Y004565D03*
X005290Y004565D03*
X005190Y003315D03*
X004520Y003315D03*
X003985Y003310D03*
X003315Y003310D03*
D44*
X001170Y004210D03*
X001170Y005210D03*
X001170Y006210D03*
D45*
X008269Y005356D03*
X008623Y005356D03*
X008977Y005356D03*
X009331Y005356D03*
X009331Y004884D03*
X008977Y004884D03*
X008623Y004884D03*
X008269Y004884D03*
D46*
X008665Y005880D03*
X010060Y005815D03*
X009645Y007840D03*
X009285Y008580D03*
X013615Y009905D03*
X014970Y009930D03*
X018405Y009705D03*
X018935Y010135D03*
X019685Y010140D03*
X003820Y007135D03*
X003815Y006700D03*
D47*
X013674Y004751D03*
X013674Y004160D03*
X013674Y003569D03*
X014816Y003569D03*
X014816Y004160D03*
X014816Y004751D03*
D48*
X014245Y004770D03*
D49*
X016260Y010620D02*
X016260Y011220D01*
X017260Y011220D02*
X017260Y010620D01*
X018260Y010620D02*
X018260Y011220D01*
X019260Y011220D02*
X019260Y010620D01*
M02*
