G75*
%MOIN*%
%OFA0B0*%
%FSLAX24Y24*%
%IPPOS*%
%LPD*%
%AMOC8*
5,1,8,0,0,1.08239X$1,22.5*
%
%ADD10R,0.1600X0.0600*%
%ADD11R,0.0394X0.0157*%
%ADD12C,0.0118*%
%ADD13R,0.0354X0.0276*%
%ADD14R,0.0870X0.0240*%
%ADD15R,0.0472X0.1575*%
%ADD16R,0.0276X0.0354*%
D10*
X001170Y004210D03*
X001170Y006210D03*
D11*
X011775Y003659D03*
D12*
X011913Y003896D02*
X011637Y003896D01*
X011637Y003934D01*
X011913Y003934D01*
X011913Y003896D01*
X011913Y004152D02*
X011637Y004152D01*
X011637Y004190D01*
X011913Y004190D01*
X011913Y004152D01*
X012227Y004190D02*
X012503Y004190D01*
X012503Y004152D01*
X012227Y004152D01*
X012227Y004190D01*
X012227Y003934D02*
X012503Y003934D01*
X012503Y003896D01*
X012227Y003896D01*
X012227Y003934D01*
X012227Y003678D02*
X012503Y003678D01*
X012503Y003640D01*
X012227Y003640D01*
X012227Y003678D01*
D13*
X011245Y003746D03*
X011245Y003234D03*
X019015Y008404D03*
X019015Y008916D03*
D14*
X007110Y005975D03*
X007110Y005475D03*
X007110Y004975D03*
X007110Y004475D03*
X005050Y004475D03*
X005050Y004975D03*
X005050Y005475D03*
X005050Y005975D03*
D15*
X014120Y007975D03*
X018530Y007975D03*
D16*
X005029Y003390D03*
X005541Y003390D03*
X005909Y003795D03*
X006421Y003795D03*
M02*
